<?xml version="1.0" encoding="utf-8"?>
<!-- Generator: Adobe Illustrator 17.0.0, SVG Export Plug-In . SVG Version: 6.00 Build 0)  -->
<!DOCTYPE svg PUBLIC "-//W3C//DTD SVG 1.1//EN" "http://www.w3.org/Graphics/SVG/1.1/DTD/svg11.dtd">
<svg version="1.1" id="Layer_1" xmlns="http://www.w3.org/2000/svg" xmlns:xlink="http://www.w3.org/1999/xlink" x="0px" y="0px"
	 width="500px" height="500px" viewBox="0 0 500 500" enable-background="new 0 0 500 500" xml:space="preserve">
<g>
	<g>
		<g>
			<path fill="#16A085" d="M191.276,356.203h130.019c11.527,0,20.906-9.378,20.906-20.905v-99.948
				c0-11.527-9.378-20.906-20.906-20.906h-0.573v-21.478c0-35.53-28.906-64.436-64.436-64.436c-35.53,0-64.436,28.907-64.436,64.436
				v21.478h-0.573c-11.527,0-20.906,9.378-20.906,20.906v99.947C170.371,346.825,179.749,356.203,191.276,356.203z M209.032,192.965
				c0-26.056,21.198-47.253,47.253-47.253s47.253,21.198,47.253,47.253v21.478h-17.183v-21.478c0-16.581-13.489-30.07-30.07-30.07
				s-30.07,13.489-30.07,30.07v21.478h-17.183V192.965L209.032,192.965z M269.172,192.965v21.478h-25.774v-21.478
				c0-7.105,5.781-12.887,12.887-12.887C263.39,180.079,269.172,185.859,269.172,192.965z M187.553,235.351
				c0-2.053,1.67-3.723,3.723-3.723h130.019c2.052,0,3.723,1.67,3.723,3.723v99.947c0,2.053-1.67,3.723-3.723,3.723H191.276
				c-2.052,0-3.723-1.67-3.723-3.723V235.351z"/>
			<path fill="#16A085" d="M291.241,293.915h0.169c4.745,0,8.592-3.847,8.592-8.592c0-4.745-3.847-8.592-8.592-8.592h-0.169
				c-4.745,0-8.592,3.847-8.592,8.592C282.649,290.069,286.497,293.915,291.241,293.915z"/>
			<path fill="#16A085" d="M221.158,293.915h39.422c4.745,0,8.592-3.847,8.592-8.592c0-4.745-3.847-8.592-8.592-8.592h-39.422
				c-4.745,0-8.592,3.847-8.592,8.592C212.567,290.069,216.413,293.915,221.158,293.915z"/>
		</g>
	</g>
	<path fill="#FFDA44" d="M253.127,417.253l-18.673-27.461c-3.393-4.938-2.158-11.723,2.935-15.125
		c4.938-3.393,11.567-2.003,14.97,2.935l30.085,44.277c3.081,4.014,2.935,9.72-0.466,13.735l-35.49,41.04
		c-3.859,4.472-10.644,4.938-15.271,1.079c-4.472-4.014-4.938-10.8-1.079-15.426l20.364-23.455
		c-6.785-0.156-13.424-0.768-20.209-1.701c-10.644-1.39-21.288-3.704-31.941-7.096c-51.684-16.049-92.112-51.528-115.402-95.97
		c-23.455-44.433-29.774-97.818-13.735-149.511c10.032-32.243,27.616-60.17,50.138-82.236
		c23.455-22.833,52.306-39.494,83.625-48.291c5.706-1.701,11.723,1.701,13.424,7.407c1.701,5.862-1.701,11.879-7.563,13.424
		c-27.771,8.019-53.541,22.833-74.216,43.043c-20.209,19.596-35.791,44.277-44.588,72.981
		c-14.348,45.978-8.641,93.501,12.034,132.996c20.831,39.495,56.622,71.125,102.6,85.472c9.565,2.935,19.13,4.938,28.539,6.328
		C239.858,416.631,246.487,417.098,253.127,417.253L253.127,417.253z M309.593,430.678c-5.706,1.701-11.723-1.701-13.424-7.563
		c-1.545-5.706,1.701-11.723,7.563-13.424c27.927-7.873,53.541-22.678,74.362-43.043c20.054-19.596,35.636-44.277,44.588-72.826
		c14.192-46.134,8.486-93.501-12.189-133.152c-20.822-39.504-56.622-71.134-102.59-85.327c-9.565-2.935-18.974-5.094-28.539-6.328
		c-6.639-0.924-13.269-1.39-19.752-1.545l18.517,27.461c3.393,4.938,2.158,11.723-2.78,14.97c-4.938,3.393-11.723,2.158-15.116-2.78
		l-30.085-44.433c-3.081-4.014-2.935-9.72,0.466-13.579l35.47-41.03c3.859-4.472,10.8-4.938,15.271-1.079
		c4.471,3.859,5.094,10.8,1.079,15.271l-20.364,23.455c6.785,0.311,13.424,0.768,20.209,1.701
		c10.644,1.545,21.288,3.859,31.941,7.096c51.84,16.204,92.112,51.684,115.402,96.126c23.455,44.433,29.774,97.818,13.735,149.511
		c-10.032,32.243-27.616,60.014-50.138,82.08C369.763,405.064,340.912,421.725,309.593,430.678L309.593,430.678z"/>
</g>
</svg>
