<?xml version="1.0" encoding="utf-8"?>
<!-- Generator: Adobe Illustrator 17.0.0, SVG Export Plug-In . SVG Version: 6.00 Build 0)  -->
<!DOCTYPE svg PUBLIC "-//W3C//DTD SVG 1.1//EN" "http://www.w3.org/Graphics/SVG/1.1/DTD/svg11.dtd">
<svg version="1.1" id="Layer_1" xmlns="http://www.w3.org/2000/svg" xmlns:xlink="http://www.w3.org/1999/xlink" x="0px" y="0px"
	 width="1535px" height="709px" viewBox="0 0 1535 709" enable-background="new 0 0 1535 709" xml:space="preserve">
<path fill="none" d="M206.2,271.255c-5.639,0-10.062-1.3-12.986,0.241c-9.131,4.815-18.732,2.131-28.042,3.254
	c-7.499,0.905-15.091,2.204-22.249,4.534c-21.048,6.853-40.958,15.998-57.166,31.691c-5.411,5.239-11.55,9.926-16.038,15.862
	c-4.811,6.363-7.994,13.945-12.029,20.912c-3.323,5.737-3.878,12.549-6.192,18.225c-5.699,13.985-0.84,27.893-2.778,41.627
	c5.037,7.693,4.252,17.528,9.341,25.226c4.87,7.367,9.289,15.054,14.483,22.179c2.955,4.053,6.8,7.589,10.713,10.784
	c8.018,6.545,15.691,13.97,24.732,18.678c9.905,5.157,19.212,12.201,31.15,13.237c6.739,0.585,13.352,2.757,19.981,4.377
	c1.642,0.401,3.097,1.996,4.694,2.09c16.074,0.945,16.071,0.848,25.025-12.269c3.627-5.313,7.51-10.451,11.179-15.736
	c3.539-5.098,6.953-10.284,9.118-13.496c-12.081-12.869-23.516-25.758-35.714-37.878c-17.487-17.374-35.522-34.197-53.356-51.22
	c-1.452-1.386-3.163-2.502-5.711-4.49c102.937-84.511,205.596-168.794,308.256-253.077c0.348,0.354,0.696,0.708,1.044,1.062
	c-31.541,41.954-63.083,83.908-95.251,126.697c94.67,0,188.349,0,282.831,0c0,19.478,0,38.421,0,58.958
	c24.305-24.077,51.673-39.613,83.471-46.682c10.674-2.373,21.702-3.155,33.292-4.765c0,14.333,0.137,27.242-0.226,40.138
	c-0.034,1.204-3.17,3.207-4.974,3.337c-18.296,1.322-35.294,6.749-50.949,16.116c-33.283,19.916-53.178,49.368-58.492,87.573
	c-6.658,47.87,8.161,88.16,46.876,118.237c18.669,14.504,40.416,21.722,63.987,23.401c1.087,0.077,2.163,0.317,3.443,0.512
	c0,13.984,0,27.776,0,41.959c-18.243-0.589-35.741-3.22-52.589-9.329c-61.671-22.363-96.678-66.748-106.377-131.028
	c-7.414-49.138,5.521-93.223,36.51-131.926c3.06-3.822,2.58-6.19,0.173-9.633c-7.085-10.133-17.067-15.553-29.021-15.768
	c-28.126-0.507-56.268-0.168-84.404-0.152c-0.521,0-1.042,0.246-2.15,0.525c0,2.153,0,4.346,0,6.539
	c0,82.719,0.107,165.439-0.08,248.158c-0.043,19.072,7.398,32.785,26.552,40.469c-31.728,0-62.308,0-93.837,0
	c13.136-5.007,22.066-13.187,25.118-26.46c1.124-4.887,1.775-9.998,1.782-15.009c0.107-82.907,0.076-165.814,0.076-248.721
	c0-1.65,0-3.299,0-5.552c-2.499,0-4.5,0-6.502,0c-24.76,0-49.521,0.197-74.278-0.064c-19.029-0.201-32.838,7.281-40.533,26.813
	c0-22.645,0-43.869,0-65.094c-0.361-0.164-0.721-0.329-1.082-0.493c-32.064,42.603-64.127,85.207-96.781,128.594
	c10.851,9.791,21.501,19.353,32.093,28.979c5.653,5.137,11.219,10.37,16.801,15.586c11.712,10.944,23.376,21.939,35.127,32.84
	c4.359,4.043,8.908,7.881,14.08,12.437c-96.619,81.048-192.794,161.724-288.97,242.401c-0.286-0.249-0.572-0.499-0.858-0.748
	c6.167-8.981,12.262-18.012,18.514-26.933c24.79-35.373,49.607-70.727,74.465-106.052c6.776-9.629,13.78-19.097,20.537-28.738
	c0.908-1.295,1.796-3.648,1.214-4.656c-0.609-1.055-2.991-1.134-4.622-1.544c-5.893-1.48-11.777-3.994-17.701-4.101
	c-7.241-0.131-12.683-4.37-19.01-6.368c-9.429-2.977-18.684-7.282-27.108-12.487c-12.036-7.436-23.435-15.956-34.718-24.525
	c-3.711-2.818-6.127-7.303-9.305-10.876c-2.508-2.82-5.433-5.275-7.884-8.139c-2.376-2.778-4.469-5.813-6.533-8.841
	c-2.831-4.153-5.679-8.312-8.21-12.648c-1.706-2.922-2.931-6.132-4.275-9.255c-1.739-4.038-3.385-8.117-5.064-12.181
	c-0.204-0.494-0.467-0.994-0.527-1.511c-0.787-6.8-1.581-13.599-2.297-20.407c-0.794-7.552-2.406-15.158-2.023-22.657
	c0.431-8.413,2.7-16.731,4.155-25.093c0.096-0.55,0.162-1.133,0.09-1.681c-0.778-5.868,3.696-9.995,5.034-15.181
	c1.042-4.041,2.383-8.064,4.126-11.849c1.637-3.557,3.763-6.944,6.053-10.133c3.302-4.598,6.754-9.12,10.491-13.367
	c6.123-6.958,12.16-14.062,18.922-20.366c5.959-5.555,12.439-10.816,19.44-14.928c11.242-6.604,23.113-12.135,34.7-18.154
	c7.429-3.859,15.161-6.581,23.481-8.04c6.871-1.205,13.541-3.555,18.891-5.014c-0.515-13.112-1.097-26.414-1.53-39.721
	c-0.177-5.434-0.318-10.897,0.042-16.313c0.478-7.2-0.228-15.139,2.623-21.365c4.254-9.289,4.694-19.815,10.817-28.495
	c3.989-5.655,5.809-12.797,9.094-19.012c1.53-2.895,5.949-5.109,6.045-7.742c0.206-5.635,4.775-7.91,7.214-11.505
	c4.727-6.97,10.636-13.25,16.671-19.19c6.546-6.444,13.948-12.009,20.698-18.257c9.451-8.749,20.659-14.775,31.753-20.946
	c8.223-4.574,16.571-9.033,25.223-12.695c8.76-3.708,18.204-5.824,26.885-9.682c6.065-2.696,12.221-3.894,18.545-5.391
	c8.522-2.017,17.097-3.019,25.648-4.498c18.341-3.171,36.713-3.098,55.138-3.019c7.807,0.033,15.665,0.253,23.4,1.203
	c6.565,0.806,12.975,2.836,19.475,4.224c4.152,0.887,8.394,1.386,12.504,2.421c7.463,1.879,14.973,3.686,22.251,6.15
	c9.618,3.255,19.076,7.004,28.517,10.756c5.05,2.007,10.309,3.874,14.8,6.829c16.61,10.929,33.838,20.883,48.399,34.893
	c6.216,5.981,12.252,12.148,18.37,18.229c0.623,0.619,1.035,1.469,1.477,2.25c2.795,4.934,4.406,5.076,9.609,2.278
	c10.903-5.863,21.709-12.035,33.068-16.875c8.016-3.415,16.852-4.939,25.365-7.142c9.047-2.341,18.056-5.011,27.246-6.564
	c8.702-1.47,17.604-1.925,26.442-2.362c7.484-0.37,15.015-0.357,22.502-0.009c10.522,0.489,21.112,0.84,31.504,2.388
	c8.653,1.289,17.051,4.261,25.583,6.407c6.442,1.62,13.111,2.57,19.322,4.809c6.408,2.309,12.438,5.71,18.537,8.823
	c7.868,4.016,15.825,7.91,23.394,12.441c6.088,3.645,11.865,7.898,17.407,12.347c8.666,6.957,16.772,14.439,24.624,22.443
	c8.988,9.163,14.697,20.178,22.391,29.948c3.128,3.971,4.135,9.591,6.225,14.409c1.245,2.869,2.745,5.627,4.076,8.46
	c0.57,1.213,1.219,2.451,1.451,3.746c0.468,2.62-1.315,6.101,2.985,7.141c0.192,0.046,0.338,0.644,0.358,0.993
	c0.776,13.931,1.698,27.858,2.144,41.8c0.081,2.524-1.803,5.11-3.041,8.354c2.509,0,4.465-0.002,6.421,0
	c25.509,0.026,51.117-1.36,76.506,0.398c41.25,2.856,75.324,19.889,92.997,59.328c14.672,32.739,13.212,66.362-2.275,98.973
	c-9.55,20.11-22.436,37.183-44.72,45.93c2.833,2.565,5.305,4.687,7.649,6.942c16.246,15.628,25.014,35.715,33.331,56.061
	c4.809,11.764,8.993,23.825,14.495,35.253c7.564,15.711,20.096,26.278,36.727,31.942c4.14,1.41,7.013,0.629,9.831-2.736
	c6.611-7.893,9.003-16.988,8.989-27.073c-0.067-48.206-0.03-96.412-0.03-144.618c0-33.388,0-66.776,0-100.164
	c0-23.889-5.158-32.206-27.09-42.946c32.093,0,63.534,0,94.976,0c0,0.379,0.072,0.644-0.01,0.707
	c-16.379,12.474-16.564,30.957-8.226,47.541c34.465,68.55,69.174,136.977,103.801,205.446c0.407,0.805,0.917,1.558,1.861,3.147
	c2.767-5.269,5.284-9.903,7.659-14.608c31.712-62.824,63.405-125.657,95.092-188.493c1.348-2.672,2.665-5.366,3.859-8.109
	c8.09-18.582,5.194-31.831-10.294-45.52c32.013,0,63.544,0,94.936,0c-0.021,0.037-0.122,0.486-0.357,0.574
	c-18.605,6.957-26.109,20.742-26.056,40.151c0.215,80.093,0.347,160.188-0.085,240.279c-0.112,20.848,5.176,37.302,26.366,45.373
	c-30.816,0-61.632,0-93.306,0c1.424-0.793,2.216-1.339,3.084-1.701c15.553-6.486,23.607-18.593,23.699-34.989
	c0.345-61.327,0.138-122.657-0.862-184.412c-41.061,79.584-82.122,159.168-123.778,239.905
	c-41.54-80.517-82.501-159.91-124.167-240.672c-0.329,2.567-0.593,3.667-0.593,4.767c-0.02,59.085-0.061,118.171,0.007,177.256
	c0.023,19.984,7.386,30.934,25.964,40.117c-1.826,0-3.652-0.005-5.478,0.001c-29.447,0.083-58.903-0.235-88.336,0.457
	c-11.276,0.265-22.416,1.108-33.443-1.839c-22.146-5.918-34.717-21.769-42.934-41.877c-2.89-7.073-5.073-14.45-7.338-21.762
	c-10.909-35.218-31.56-63.425-61.125-85.248c-3.006-2.219-6.101-4.316-9.416-6.653c6.847,0,13.384-0.148,19.912,0.025
	c31.931,0.847,65.348-31.455,70.218-61.751c2.412-15.006,2.393-29.95-2.463-44.449c-8.646-25.819-28.277-38.584-53.796-43.736
	c-5.279-1.066-10.771-1.438-16.17-1.477c-22.32-0.159-44.642-0.067-66.963-0.066c-2.008,0-4.016,0-6.648,0c0,3.092,0,5.483,0,7.874
	c0,82.719,0.114,165.439-0.083,248.158c-0.047,19.843,5.034,36.226,25.059,44.788c-30.088,0-60.175,0-91.568,0
	c2.451-1.219,3.85-1.886,5.223-2.602c11.837-6.17,19.918-16,20.252-29.095c0.861-33.716,0.288-67.468,0.03-101.322
	c-7.618,39.733-24.518,74.325-56.498,100.067c-31.801,25.599-68.792,36.067-109.536,36.016c0-14.108,0-27.735,0-42.027
	c5.224-0.381,10.559-0.698,15.88-1.169c62.784-5.552,108.38-56.293,106.881-123.806c-0.82-36.954-12.812-69.113-41.294-93.731
	c-21.912-18.939-48.077-26.817-76.689-27.472c-1.468-0.034-2.933-0.179-4.731-0.293c0-14.02,0-27.769,0-42.014
	c40.893-0.946,77.503,10.475,109.362,35.859c32.152,25.616,49.032,60.153,56.858,99.856c0.111-1.09,0.319-2.18,0.32-3.27
	c0.019-34.701,0.216-69.403-0.06-104.102c-0.146-18.328-8.969-30.093-27.651-37.12c9.47,0,17.491,0,26.271,0
	c0-10.017,2.012-20.11-0.625-28.79c-2.183-7.185-2.18-14.818-5.143-21.55c-3.81-8.658-8.267-17.086-13.098-25.226
	c-6.308-10.63-15.229-19.119-23.665-28.086c-5.918-6.29-12.841-10.432-19.837-14.863c-5.844-3.702-11.384-8.001-17.549-11.045
	c-6.66-3.289-13.906-5.381-20.861-8.086c-3.813-1.482-7.5-3.298-11.343-4.688c-3.228-1.168-6.549-2.214-9.918-2.821
	c-5.913-1.064-11.87-2.032-17.85-2.535c-11.388-0.958-22.829-2.384-34.204-2.063c-9.902,0.28-19.749,2.66-29.608,4.192
	c-4.29,0.667-8.602,1.321-12.809,2.366c-4.364,1.084-8.676,2.458-12.893,4.023c-4.939,1.833-9.825,3.848-14.6,6.072
	c-7.165,3.337-14.658,6.251-21.207,10.565c-9.595,6.32-18.526,13.659-27.647,20.685c-4.056,3.125-8.124,6.305-11.752,9.898
	c-4.007,3.968-6.13,0.753-8.036-1.864c-1.986-2.728-3.083-6.086-4.91-8.951c-3.087-4.842-7.555-9.11-9.446-14.341
	c-3.546-9.812-11.262-16.238-17.486-23.743c-10.849-13.083-24.918-22.744-38.822-32.269c-6.202-4.249-13.818-6.417-20.744-9.633
	c-8.596-3.992-17.021-8.382-25.765-12.009c-3.838-1.592-8.33-1.531-12.44-2.563c-4.85-1.219-9.605-2.818-14.408-4.227
	c-0.527-0.155-1.101-0.17-1.656-0.207c-11.509-0.759-23.01-1.758-34.531-2.191c-9.74-0.366-19.516-0.369-29.255,0.012
	c-8.712,0.341-17.542,0.683-26.056,2.362c-11.688,2.305-23.452,5.014-34.548,9.224c-6.506,2.468-13.2,5.129-19.544,8.792
	c-7.464,4.309-15.783,8.089-23.605,12.27c-4.968,2.656-9.366,6.468-13.774,10.063c-6.708,5.47-13.43,10.962-19.718,16.897
	c-5.11,4.823-9.797,10.142-14.274,15.569c-2.684,3.253-4.671,7.097-6.85,10.747c-3.41,5.715-6.993,11.353-9.975,17.288
	c-2.142,4.261-3.445,8.947-5.082,13.458c-1.168,3.219-2.575,6.393-3.322,9.712c-1.042,4.628-0.4,10.003-2.533,13.948
	c-6.631,12.263-1.443,25.146-3.01,37.605c-0.174,1.383,1.608,2.967,2.338,4.525c0.443,0.947,0.874,2.028,0.856,3.041
	c-0.134,7.626,1.653,14.443,5.178,21.475C202.673,253.736,203.742,262.301,206.2,271.255z M351.46,619.462
	c0.908,15.89-12.168,29.052-31.15,28.971c-16.858-0.072-31.847-12.658-31.039-29.289c0.74-15.237,13.075-28.257,31.134-28.126
	C338.277,591.148,351.893,602.026,351.46,619.462z M298.563,619.944c-1.132,11.277,11.214,20.624,21.547,20.473
	c12.813-0.187,22.235-8.471,22.454-20.774c0.202-11.35-9.892-21.003-22.161-20.657C308.752,599.315,297.899,607.692,298.563,619.944
	z M813.128,592.3c3.39,0,5.621,0,8.315,0c0,19.184,0,38.323,0,56.841c-13.777-13.104-27.885-26.522-42.307-40.237
	c0,12.525,0,25.113,0,37.966c-3.182,0-5.707,0-8.549,0c0-19.059,0-37.924,0-56.321c13.624,13.218,27.549,26.727,42.54,41.272
	C813.128,617.923,813.128,605.353,813.128,592.3z M928.002,631.159c0-13.234,0-25.695,0-38.58c3.009,0,5.5,0,8.354,0
	c0,18.992,0,38.028,0,56.074c-13.515-12.869-27.607-26.288-42.223-40.206c0,12.848,0,25.402,0,38.324c-3.207,0-5.738,0-8.668,0
	c0-18.876,0-37.856,0-56.687C899.328,603.471,913.235,616.9,928.002,631.159z M410.535,591.716
	c9.168,0.472,17.823,0.264,26.267,1.495c15.373,2.241,24.339,13.192,23.723,27.703c-0.588,13.861-11.453,25.014-26.077,26.045
	c-7.798,0.55-15.667,0.097-23.914,0.097C410.535,628.827,410.535,610.824,410.535,591.716z M419.072,639.193
	c5.728,0,10.993,0.561,16.092-0.123c9.106-1.221,15.979-8.74,16.602-17.158c0.744-10.048-3.666-17.867-12.905-20.326
	c-6.28-1.671-13.04-1.535-19.789-2.228C419.072,613.395,419.072,626.07,419.072,639.193z M990.33,626.006c-5.081,0-9.876,0-14.929,0
	c0-2.556,0-4.521,0-7.294c4.03,0,7.901,0,11.771,0c3.701,0,7.401,0,11.734,0c0,6.173,0.153,11.744-0.102,17.296
	c-0.068,1.486-1.017,3.367-2.178,4.299c-10.344,8.299-22.111,9.526-34.456,5.973c-11.242-3.236-18.171-10.736-20.227-22.427
	c-2.417-13.74,6.667-26.822,21.553-31.082c14.006-4.008,27.302,0.481,35.565,12.446c-1.81,1.371-3.651,2.767-6.033,4.572
	c-4.482-6.056-10.12-9.903-17.672-10.636c-16.402-1.591-28.984,12.506-24.055,27.135c2.709,8.041,10.834,13.782,20.433,14.082
	c3.146,0.098,6.362-0.313,9.465-0.909C990.029,637.767,991.286,635.949,990.33,626.006z M649.752,619.645
	c0.057-15.874,13.499-28.217,30.846-28.323c17.782-0.109,30.99,12.121,30.916,28.629c-0.072,16.203-13.297,28.335-30.741,28.201
	C662.75,648.013,649.693,636.014,649.752,619.645z M680.583,640.564c13.519-0.101,22.598-8.662,22.397-21.12
	c-0.196-12.165-9.466-20.709-22.459-20.701c-12.262,0.008-22.341,9.466-22.466,21.083
	C657.93,631.451,667.932,640.658,680.583,640.564z M247.633,600.361c-1.648,2.166-3.093,4.067-4.83,6.349
	c-1.366-0.683-2.961-1.153-4.145-2.123c-12.404-10.159-32.885-4.723-36.795,13.232c-1.639,7.527,6.155,18.399,15.235,21.271
	c7.038,2.226,13.689,1.299,19.9-2.765c5.86-3.834,6.278-3.688,9.67,2.885c-7.157,11.267-31.07,12.846-45.03,1.512
	c-10.185-8.269-11.582-28.04-2.99-38.212C209.733,589.387,233.141,586.037,247.633,600.361z M395.912,592.391
	c2.457,0,4.658,0,6.925,0c0,14.21,0.337,28.192-0.27,42.133c-0.129,2.961-3.184,6.391-5.776,8.537
	c-8,6.625-23.813,6.588-32.297,0.502c-4.613-3.309-6.722-7.889-7.043-13.421c-0.108-1.869-0.212-3.742-0.216-5.614
	c-0.021-10.481-0.01-20.962-0.01-31.91c2.826,0,5.328,0,8.77,0c0,5.902,0,12.007,0,18.112c0,5.812-0.026,11.624,0.007,17.436
	c0.037,6.494,2.194,9.356,8.529,11.453c11.971,3.962,20.479-2.043,20.522-14.449c0.037-10.494,0.119-20.987,0.208-31.481
	C395.265,593.365,395.573,593.046,395.912,592.391z M756.075,592.421c2.207,0,4.545,0,7.029,0c0,14.039,0.011,27.831-0.032,41.622
	c-0.002,0.707-0.441,1.42-0.714,2.116c-3.212,8.2-13.846,13.153-25.145,11.719c-12.131-1.539-18.957-7.027-19.444-17.237
	c-0.597-12.506-0.142-25.062-0.142-38.045c2.627,0,5.137,0,8.518,0c0,7.085,0,14.324,0,21.564c0,4.5-0.014,8.999,0.004,13.499
	c0.028,6.996,2.073,9.833,8.587,11.974c11.974,3.935,20.424-2.077,20.469-14.52c0.038-10.493,0.128-20.986,0.223-31.479
	C755.431,593.317,755.755,593.002,756.075,592.421z M590.19,600.849c-1.538,1.751-3.104,3.533-4.626,5.265
	c-14.646-9.348-27.816-8.802-36.087,1.246c-6.224,7.56-5.894,18.482,0.775,25.713c8.727,9.462,22.098,9.836,35.057,0.612
	c1.494,1.693,3.036,3.442,4.565,5.176c-9.953,11.845-32.109,12.474-44.302,1.448c-11.47-10.373-12.021-28.768-1.19-39.751
	C556.313,588.461,578.738,588.456,590.19,600.849z M641.77,633.865c1.425,1.624,2.887,3.289,4.327,4.93
	c-6.69,8.56-20.291,11.701-32.895,7.711c-12.812-4.056-21.17-15.349-20.476-27.665c0.754-13.377,10.453-24.205,24.064-26.64
	c11.08-1.982,21.18-0.171,29.873,8.38c-1.678,1.946-3.223,3.736-4.756,5.514c-11.388-9.054-25.719-10.322-36.035,1.213
	c-6.364,7.116-6.061,18.011,0.194,25.26C614.5,642.342,627.32,642.874,641.77,633.865z M536.306,646.477
	c-6.187,1.823-9.591,0.475-11.957-5.58c-4.473-11.451-9.956-22.508-15.538-34.877c-3.979,8.655-7.503,16.294-11.003,23.945
	c-1.556,3.401-3.378,6.722-4.524,10.26c-1.925,5.939-5.299,8.729-12.158,6.241c8.979-19.089,18.013-38.297,27.655-58.796
	C518.244,607.888,527.252,627.134,536.306,646.477z M850.223,646.953c-3.537,0-6.11,0-9.377,0c0-15.595,0-31.012,0-46.993
	c-5.439,0-10.214,0-15.241,0c0-2.735,0-4.901,0-7.446c13.045,0,26.041,0,39.438,0c0,2.24,0,4.387,0,7.12c-4.708,0-9.475,0-14.82,0
	C850.223,615.622,850.223,631.049,850.223,646.953z M251.741,592.324c2.933,0,5.486,0,8.436,0c0,15.568,0,30.869,0,46.781
	c9.069,0,17.761,0,26.785,0c0,2.903,0,5.2,0,7.778c-11.718,0-23.266,0-35.221,0C251.741,628.821,251.741,610.774,251.741,592.324z
	 M869.714,592.465c2.705,0,5.212,0,7.994,0c0.142,1.112,0.353,2.004,0.354,2.897c0.02,17.008,0.015,34.016,0.015,51.405
	c-2.899,0-5.428,0-8.363,0C869.714,628.853,869.714,610.82,869.714,592.465z"/>
</svg>
