<?xml version="1.0" encoding="utf-8"?>
<!-- Generator: Adobe Illustrator 17.0.0, SVG Export Plug-In . SVG Version: 6.00 Build 0)  -->
<!DOCTYPE svg PUBLIC "-//W3C//DTD SVG 1.1//EN" "http://www.w3.org/Graphics/SVG/1.1/DTD/svg11.dtd">
<svg version="1.1" id="Layer_1" xmlns="http://www.w3.org/2000/svg" xmlns:xlink="http://www.w3.org/1999/xlink" x="0px" y="0px"
	 width="800px" height="600px" viewBox="0 0 800 600" enable-background="new 0 0 800 600" xml:space="preserve">
<g>
	<path fill="#34495E" d="M585.571,597.268H205.437c-8.088,0-14.828-6.74-14.828-14.828V42.568c0-8.088,6.74-14.828,14.828-14.828
		h379.46c8.088,0,14.828,6.74,14.828,14.828V582.44C600.399,590.528,593.659,597.268,585.571,597.268z"/>
	<polygon fill="#FFFFFF" points="206.111,56.722 206.111,524.476 520.193,524.476 520.193,459.772 584.897,459.772 584.897,56.722 	
		"/>
	<polygon fill="#E6E9EE" points="520.193,524.476 584.897,459.772 520.193,459.772 	"/>
	<path fill="#FFD05B" d="M497.277,76.942H293.73c-4.044,0-6.74-3.37-6.74-6.74v-57.29c0-4.044,3.37-6.74,6.74-6.74h203.547
		c4.044,0,6.74,3.37,6.74,6.74v57.29C504.017,73.572,501.321,76.942,497.277,76.942z"/>
	<rect x="226.33" y="104.576" fill="#84DBFF" width="25.612" height="12.806"/>
	<rect x="264.748" y="104.576" fill="#E6E9EE" width="296.559" height="12.806"/>
	<rect x="226.33" y="151.082" fill="#84DBFF" width="25.612" height="12.806"/>
	<rect x="264.748" y="151.082" fill="#E6E9EE" width="296.559" height="12.806"/>
	<rect x="226.33" y="198.261" fill="#84DBFF" width="25.612" height="12.806"/>
	<rect x="264.748" y="198.261" fill="#E6E9EE" width="296.559" height="12.806"/>
	<rect x="226.33" y="244.767" fill="#84DBFF" width="25.612" height="12.806"/>
	<rect x="264.748" y="244.767" fill="#E6E9EE" width="296.559" height="12.806"/>
	<rect x="226.33" y="291.273" fill="#84DBFF" width="25.612" height="12.806"/>
	<rect x="264.748" y="291.273" fill="#E6E9EE" width="296.559" height="12.806"/>
	<rect x="226.33" y="337.779" fill="#84DBFF" width="25.612" height="12.806"/>
	<rect x="264.748" y="337.779" fill="#E6E9EE" width="296.559" height="12.806"/>
</g>
<g>
	<path fill="#C7CAC7" stroke="#C7CAC7" stroke-width="2" stroke-miterlimit="10" d="M630.281,480.663H526.25v-70.891
		c0-26.774,23.334-48.551,52.015-48.551s52.015,21.777,52.015,48.551V480.663z M541.662,465.251h73.207v-55.479
		c0-18.275-16.421-33.139-36.603-33.139c-20.182,0-36.603,14.865-36.603,33.139V465.251z"/>
	<rect x="499.279" y="457.545" fill="#1ABC9C" width="161.825" height="123.295"/>
	<rect x="580.192" y="457.545" fill="#16A085" width="80.913" height="123.295"/>
	<polygon fill="#EBBA16" points="632.538,576.987 657.251,552.274 657.251,538.458 635.729,538.458 597.199,576.987 	"/>
	<polygon fill="#4F5970" points="503.132,538.458 503.132,567.686 532.361,538.458 	"/>
	<polygon fill="#424A60" points="586.303,576.987 624.832,538.458 589.493,538.458 550.963,576.987 	"/>
	<path fill="#EACC18" d="M578.597,538.458h-35.34l-37.401,37.401c-0.751,0.751-1.738,1.129-2.724,1.129h36.935L578.597,538.458z"/>
	<polygon fill="#424A60" points="657.251,576.987 657.251,563.171 643.435,576.987 	"/>
	<polygon fill="#4F5970" points="580.192,547.759 550.963,576.987 580.192,576.987 	"/>
</g>
</svg>
