<?xml version="1.0" encoding="iso-8859-1"?>
<!-- Generator: Adobe Illustrator 19.0.0, SVG Export Plug-In . SVG Version: 6.00 Build 0)  -->
<svg version="1.1" id="Layer_1" xmlns="http://www.w3.org/2000/svg" xmlns:xlink="http://www.w3.org/1999/xlink" x="0px" y="0px"
	 viewBox="0 0 482.331 482.331" style="enable-background:new 0 0 482.331 482.331;" xml:space="preserve">
<g>
	<path style="fill:#FFFFFF;" d="M252.988,379.405c0-1.205-0.602-3.012-0.602-4.819h-19.878v-11.445h18.673c0-0.602,0-1.205,0-1.807
		c0-5.421,0.602-10.842,1.205-15.661H163.84v-11.445h78.908c-6.626-7.831-7.831-19.275-2.409-28.311l10.842-19.275h-54.212v-11.445
		h61.44c4.819-5.421,11.445-9.035,18.673-9.035c2.409,0,5.421,0.602,7.831,1.205l9.638,3.012
		c8.433-6.626,17.468-12.047,27.708-16.264v-8.433h5.421l0.602-3.012c2.409-11.445,12.649-19.275,24.094-19.275h31.925
		c7.831,0,15.059,4.216,19.878,10.24V67.989H0.602v326.475c0,5.421,4.216,9.638,9.638,9.638h227.087
		c0-6.626,3.012-13.252,8.433-18.071L252.988,379.405z M202.993,304.111v11.445H163.84v-11.445H202.993z M225.28,227.612h-102.4
		v-11.445h102.4V227.612z M271.661,257.128h-39.153v-11.445h39.153V257.128z M244.555,198.097v-11.445h39.153v11.445H244.555z
		 M322.259,227.612h-39.153v-11.445h39.153V227.612z M272.866,91.481h12.047v70.475h-12.047V91.481z M203.595,91.481h24.094
		c10.842,0,18.673,1.807,23.492,6.024c4.819,4.216,7.228,10.24,7.228,19.275c0,8.433-2.409,15.059-7.228,18.673
		c-4.819,4.216-12.649,6.024-22.889,6.024h-12.649v20.48h-12.047L203.595,91.481L203.595,91.481z M202.993,198.097H163.84v-11.445
		h39.153V198.097z M149.986,91.481h12.649l31.322,70.475h-12.649l-7.228-16.264h-35.539l-7.228,16.264h-12.649L149.986,91.481z
		 M83.727,186.652h39.153v11.445H83.727V186.652z M83.727,245.683h113.845v11.445H83.727V245.683z M160.226,275.198v11.445h-39.153
		v-11.445H160.226z M83.727,304.111h39.153v11.445H83.727V304.111z M83.727,333.626h39.153v11.445H83.727V333.626z M62.042,375.189
		H22.889v-11.445h39.153V375.189z M62.042,345.674H22.889v-11.445h39.153V345.674z M62.042,316.158H22.889v-11.445h39.153V316.158z
		 M62.042,286.643H22.889v-11.445h39.153V286.643z M62.042,257.128H22.889v-11.445h39.153V257.128z M62.042,227.612H22.889v-11.445
		h39.153V227.612z M62.042,198.097H22.889v-11.445h39.153V198.097z M196.969,375.189H83.727v-11.445h113.845v11.445H196.969z"/>
	<polygon style="fill:#FFFFFF;" points="156.612,105.937 143.36,134.85 169.261,134.85 	"/>
	<path style="fill:#FFFFFF;" d="M242.748,127.019c2.409-2.409,3.614-6.024,3.614-10.842s-1.807-8.433-4.819-10.24
		c-3.012-1.807-7.831-3.012-14.456-3.012H215.04v28.311h13.854C236.122,130.634,240.339,129.429,242.748,127.019z"/>
</g>
<path style="fill:#64798A;" d="M403.576,10.163c0-5.421-4.216-9.638-9.638-9.638H9.638C4.216,0.525,0,4.742,0,10.163v57.224h403.576
	V10.163z M24.696,45.099c-6.024,0-10.842-4.819-10.842-10.842s4.819-10.842,10.842-10.842s10.842,4.819,10.842,10.842
	C35.539,40.281,30.72,45.099,24.696,45.099z M63.849,45.099c-6.024,0-10.842-4.819-10.842-10.842s4.819-10.842,10.842-10.842
	s10.842,4.819,10.842,10.842C75.294,40.281,70.475,45.099,63.849,45.099z M103.605,45.099c-6.024,0-10.842-4.819-10.842-10.842
	s4.819-10.842,10.842-10.842s10.842,4.819,10.842,10.842C114.447,40.281,109.628,45.099,103.605,45.099z M387.915,45.099H135.529
	V22.812h252.988v22.287H387.915z"/>
<rect x="135.529" y="22.812" style="fill:#EBF0F3;" width="252.988" height="22.287"/>
<circle style="fill:#FCD462;" cx="103.605" cy="34.257" r="10.842"/>
<circle style="fill:#44C4A1;" cx="63.849" cy="34.257" r="10.842"/>
<circle style="fill:#E56353;" cx="24.696" cy="34.257" r="10.842"/>
<g>
	<rect x="22.889" y="186.652" style="fill:#64798A;" width="39.153" height="11.445"/>
	<rect x="22.889" y="216.168" style="fill:#64798A;" width="39.153" height="11.445"/>
	<rect x="283.106" y="216.168" style="fill:#64798A;" width="39.153" height="11.445"/>
	<rect x="22.889" y="245.683" style="fill:#64798A;" width="39.153" height="11.445"/>
</g>
<rect x="232.508" y="245.683" style="fill:#E56353;" width="39.153" height="11.445"/>
<path style="fill:#27A2DB;" d="M322.259,254.116c1.205-0.602,2.409-1.205,3.614-1.807l1.205-7.228h-4.819V254.116z"/>
<g>
	<rect x="22.889" y="275.198" style="fill:#64798A;" width="39.153" height="11.445"/>
	<rect x="22.889" y="304.111" style="fill:#64798A;" width="39.153" height="11.445"/>
	<rect x="22.889" y="333.626" style="fill:#64798A;" width="39.153" height="11.445"/>
	<rect x="22.889" y="363.142" style="fill:#64798A;" width="39.153" height="11.445"/>
</g>
<g>
	<path style="fill:#E56353;" d="M232.508,375.189h19.878c-0.602-3.614-0.602-7.831-0.602-11.445h-18.673v11.445H232.508z"/>
	<rect x="83.727" y="186.652" style="fill:#E56353;" width="39.153" height="11.445"/>
</g>
<rect x="163.84" y="186.652" style="fill:#64798A;" width="39.153" height="11.445"/>
<g>
	<rect x="244.555" y="186.652" style="fill:#44C4A1;" width="39.153" height="11.445"/>
	<rect x="122.88" y="216.168" style="fill:#44C4A1;" width="102.4" height="11.445"/>
</g>
<rect x="83.727" y="245.683" style="fill:#64798A;" width="113.845" height="11.445"/>
<rect x="121.073" y="275.198" style="fill:#44C4A1;" width="39.153" height="11.445"/>
<path style="fill:#DC8744;" d="M196.969,286.643h54.212L256,278.21c0.602-1.205,1.807-2.409,2.409-3.614h-61.44V286.643z"/>
<rect x="83.727" y="304.111" style="fill:#E56353;" width="39.153" height="11.445"/>
<g>
	<rect x="163.84" y="304.111" style="fill:#64798A;" width="39.153" height="11.445"/>
	<rect x="83.727" y="333.626" style="fill:#64798A;" width="39.153" height="11.445"/>
</g>
<path style="fill:#27A2DB;" d="M163.84,345.674h88.546c0-0.602,0-1.807,0-2.409l-7.831-6.626c-0.602-0.602-1.807-1.807-2.409-2.409
	H163.84V345.674z"/>
<rect x="83.727" y="363.142" style="fill:#DC8744;" width="113.845" height="11.445"/>
<g>
	<path style="fill:#E56353;" d="M138.541,146.295h35.539l7.228,16.264h12.649l-31.322-70.475h-12.649l-31.322,70.475h12.649
		L138.541,146.295z M156.612,105.937l12.649,28.913H143.36L156.612,105.937z"/>
	<path style="fill:#E56353;" d="M215.642,141.476h12.649c10.24,0,18.071-1.807,22.889-6.024s7.228-10.24,7.228-18.673
		s-2.409-15.059-7.228-19.275c-4.819-4.216-12.649-6.024-23.492-6.024h-24.094v70.475h12.047L215.642,141.476L215.642,141.476z
		 M215.642,102.323h12.047c6.626,0,11.445,1.205,14.456,3.012c3.012,1.807,4.819,5.421,4.819,10.24s-1.205,8.433-3.614,10.842
		c-2.409,2.409-6.626,3.614-13.252,3.614h-13.854v-27.708H215.642z"/>
	<rect x="272.866" y="91.481" style="fill:#E56353;" width="12.047" height="70.475"/>
</g>
<path style="fill:#EBF0F3;" d="M403.576,394.464V233.034c-4.216-6.024-11.445-10.24-19.878-10.24h-31.322
	c-11.445,0-21.685,8.433-24.094,19.275l-0.602,3.012h33.732v11.445h-39.153v-3.012c-9.638,4.216-19.275,9.638-27.708,16.264
	l-9.638-3.012c-2.409-0.602-4.819-1.205-7.831-1.205c-7.228,0-13.854,3.614-18.673,9.035h56.019v12.047h-63.247l-10.842,19.275
	c-5.421,9.035-4.216,20.48,2.409,28.311h51.2v11.445h-40.96c-0.602,5.421-1.205,10.24-1.205,15.661c0,0.602,0,1.205,0,1.807h19.878
	v11.445h-19.275c0,1.807,0,3.012,0.602,4.819l-7.831,6.626c-5.421,4.819-7.831,11.445-8.433,18.071h156.612
	C399.36,404.102,403.576,399.885,403.576,394.464z M244.555,316.158v-11.445h117.459v11.445H244.555z M368.038,375.189h-39.153
	v-11.445h39.153V375.189z M381.289,345.674h-39.153v-11.445h39.153V345.674z"/>
<path style="fill:#3EA69B;" d="M322.259,254.116v3.012h39.153v-11.445H327.68l-1.205,7.228
	C325.271,252.911,323.464,253.514,322.259,254.116z"/>
<path style="fill:#D15241;" d="M271.661,375.189v-11.445h-19.878c0,4.216,0.602,7.831,0.602,11.445H271.661z"/>
<rect x="328.885" y="363.142" style="fill:#CE412D;" width="39.153" height="11.445"/>
<path style="fill:#C9773F;" d="M251.181,286.643h63.849v-11.445h-56.019c-1.205,1.205-1.807,2.409-2.409,3.614L251.181,286.643z"/>
<rect x="244.555" y="304.111" style="fill:#3EA69B;" width="117.459" height="11.445"/>
<rect x="342.136" y="333.626" style="fill:#CE412D;" width="39.153" height="11.445"/>
<path style="fill:#2D93BA;" d="M252.988,343.264c0,0.602,0,1.807,0,2.409h40.96v-11.445h-51.2c0.602,0.602,1.205,1.807,2.409,2.409
	L252.988,343.264z"/>
<path style="fill:#E56353;" d="M464.414,386.031c1.807-7.831,3.012-16.264,3.012-24.696s-1.205-16.866-3.012-24.696l15.059-13.252
	c2.409-2.409,3.012-6.024,1.205-8.433l-15.661-27.708c-1.807-3.012-4.819-4.216-8.433-3.012l-19.275,6.626
	c-11.445-11.445-26.504-19.878-42.767-24.696l-4.216-19.878c-0.602-3.012-3.614-5.421-6.626-5.421h-31.322
	c-3.012,0-6.024,2.409-6.626,5.421l-4.216,19.878c-16.264,4.819-30.72,13.252-42.767,24.696l-19.275-6.626
	c-3.012-1.205-6.626,0-8.433,3.012l-15.661,27.708c-1.807,3.012-1.205,6.626,1.205,8.433l15.059,13.252
	c-1.807,7.831-3.012,16.264-3.012,24.696c0,8.433,1.205,16.866,3.012,24.696l-15.059,13.252c-2.409,2.409-3.012,6.024-1.205,8.433
	l15.661,27.708c1.807,3.012,4.819,4.216,8.433,3.012l19.275-6.626c11.445,11.445,26.504,19.878,42.767,24.696l4.216,19.878
	c0.602,3.012,3.614,5.421,6.626,5.421h31.925c3.012,0,6.024-2.409,6.626-5.421l4.216-19.878
	c16.264-4.819,30.72-13.252,42.767-24.696l19.275,6.626c3.012,1.205,6.626,0,8.433-3.012l15.661-27.708
	c1.807-3.012,1.205-6.626-1.205-8.433L464.414,386.031z M368.038,436.027c-40.96,0-74.692-33.732-74.692-74.692
	s33.732-74.692,74.692-74.692c41.562,0,74.692,33.732,74.692,74.692S409.6,436.027,368.038,436.027z"/>
<path style="fill:#D15241;" d="M368.038,286.643c-40.96,0-74.692,33.732-74.692,74.692s33.732,74.692,74.692,74.692
	s74.692-33.732,74.692-74.692S409.6,286.643,368.038,286.643z M368.038,422.775c-33.732,0-61.44-27.708-61.44-61.44
	s27.708-61.44,61.44-61.44s61.44,27.708,61.44,61.44C429.478,395.067,401.769,422.775,368.038,422.775z"/>
<circle style="fill:#CE412D;" cx="368.038" cy="361.335" r="35.539"/>
<g>
</g>
<g>
</g>
<g>
</g>
<g>
</g>
<g>
</g>
<g>
</g>
<g>
</g>
<g>
</g>
<g>
</g>
<g>
</g>
<g>
</g>
<g>
</g>
<g>
</g>
<g>
</g>
<g>
</g>
</svg>
