<?xml version="1.0" encoding="utf-8"?>
<!-- Generator: Adobe Illustrator 17.0.0, SVG Export Plug-In . SVG Version: 6.00 Build 0)  -->
<!DOCTYPE svg PUBLIC "-//W3C//DTD SVG 1.1//EN" "http://www.w3.org/Graphics/SVG/1.1/DTD/svg11.dtd">
<svg version="1.1" id="Layer_1" xmlns="http://www.w3.org/2000/svg" xmlns:xlink="http://www.w3.org/1999/xlink" x="0px" y="0px"
	 width="512px" height="512px" viewBox="0 0 512 512" enable-background="new 0 0 512 512" xml:space="preserve">
<g>
	<g transform="translate(0.000000,511.000000) scale(0.100000,-0.100000)">
		<path fill="#674272" d="M151.49,2550V167.793h1786.618h1786.618V672.94v505.196h-148.885h-148.885l-1.032-60.606
			c0-34.014-1.082-193.565-2.114-354.148l-2.114-292.461l-1485.654-3.195l-1486.735-2.113V2550v2084.388l954.996-2.113
			l953.915-3.195l3.195-549.827l2.114-550.859l529.625-2.114l528.544-3.195l1.081-215.88c1.082-119.098,4.277-217.994,5.309-220.157
			c6.39-5.309,112.757-8.504,209.491-7.471l87.198,2.114v412.641l1.032,411.559l-518.959,512.618l-518.959,512.618l-1267.66,1.082
			H151.49V2550z M3187.729,4018.647l191.402-192.484h-359.457h-358.376v351.986v352.035l168.005-159.502
			C2920.778,4282.402,3082.443,4123.933,3187.729,4018.647z"/>
		<path fill="#003243" d="M885.297,4198.4v-148.885h611.514h611.465V4198.4v148.885h-611.514H885.297V4198.4z"/>
		<path fill="#003243" d="M885.297,2964.754v-148.885h420.063h420.063v148.885v148.885H1305.36H885.297V2964.754z"/>
		<path fill="#003243" d="M2161.46,2964.754v-148.885h409.446h409.446v148.885v148.885h-409.446H2161.46V2964.754z"/>
		<path fill="#EE2A5A" d="M4174.625,2826.486c-61.687-37.209-89.36-107.399-68.077-172.282
			c7.422-23.397,68.077-92.506,176.509-199.906c90.393-90.393,164.86-168.055,164.86-172.282c0-5.309-264.788-8.503-587.036-8.503
			c-448.768,0-594.458-3.195-614.709-13.812c-74.418-38.291-99.978-156.356-45.712-221.189
			c54.216-63.801,43.599-62.769,675.315-62.769h576.419l-165.941-166.973c-130.796-132.91-169.087-177.59-178.672-211.604
			c-17.007-57.411-1.032-108.481,48.907-153.161c29.787-25.51,46.794-31.9,85.084-31.9c26.592,0,60.606,6.39,76.581,14.893
			c35.096,19.121,622.131,608.319,639.188,641.252c14.894,29.787,14.894,93.588,0,123.375
			c-17.007,32.933-604.042,622.131-639.138,641.252C4277.749,2854.16,4215.029,2850.965,4174.625,2826.486z"/>
		<path fill="#003243" d="M885.297,2390.498v-148.885h420.063h420.063v148.885v148.885H1305.36H885.297V2390.498z"/>
		<path fill="#003243" d="M2161.46,2390.498v-148.885h409.446h409.446v148.885v148.885h-409.446H2161.46V2390.498z"/>
		<path fill="#003243" d="M892.719,1957.656c-4.276-3.195-7.422-70.191-7.422-148.885v-141.463h420.063h421.144l-3.195,146.771
			l-3.195,145.69l-410.527,3.195C1084.171,1964.045,896.996,1961.883,892.719,1957.656z"/>
		<path fill="#003243" d="M2161.46,1816.193v-148.885h409.446h409.446v148.885v148.885h-409.446H2161.46V1816.193z"/>
		<path fill="#003243" d="M887.411,1021.78l3.195-146.771h414.754h414.754l3.195,146.771l3.195,145.69H1305.36H884.216
			L887.411,1021.78z"/>
		<path fill="#003243" d="M2161.46,1018.585V869.7h409.446h409.446v148.885v148.885h-409.446H2161.46V1018.585z"/>
	</g>
</g>
</svg>
