<svg xmlns="http://www.w3.org/2000/svg" xmlns:xlink="http://www.w3.org/1999/xlink" viewBox="0 0 496.12 251.2"><defs><linearGradient id="linear-gradient" x1="121.74" y1="142.54" x2="243.74" y2="142.54" gradientUnits="userSpaceOnUse"><stop offset="0" stop-color="#7474bf"/><stop offset="1" stop-color="#348ac7"/></linearGradient><linearGradient id="linear-gradient-2" x1="175.46" y1="142.54" x2="190.03" y2="142.54" xlink:href="#linear-gradient"/><linearGradient id="linear-gradient-3" x1="0" y1="124.49" x2="190.03" y2="124.49" xlink:href="#linear-gradient"/><linearGradient id="linear-gradient-4" x1="277.22" y1="112.8" x2="466.26" y2="112.8" gradientUnits="userSpaceOnUse"><stop offset="0" stop-color="#7474bf"/><stop offset="0.63" stop-color="#4d81c4"/><stop offset="1" stop-color="#348ac7"/></linearGradient><linearGradient id="linear-gradient-5" x1="308.42" y1="42.6" x2="437.64" y2="42.6" xlink:href="#linear-gradient-4"/><linearGradient id="linear-gradient-6" x1="308.42" y1="80.16" x2="437.64" y2="80.16" xlink:href="#linear-gradient-4"/><linearGradient id="linear-gradient-7" x1="307.04" y1="138.38" x2="496.12" y2="138.38" xlink:href="#linear-gradient-4"/><linearGradient id="linear-gradient-8" x1="299.04" y1="148.41" x2="443.91" y2="148.41" xlink:href="#linear-gradient-4"/></defs><title>setup-profile</title><g id="Layer_2" data-name="Layer 2"><g id="Layer_2-2" data-name="Layer 2"><path d="M236.46,135.26h-7.53a46.52,46.52,0,0,0-8.4-20.21l5.34-5.34a7.28,7.28,0,0,0-10.3-10.3l-5.34,5.34A46.51,46.51,0,0,0,190,96.35V88.83a7.28,7.28,0,0,0-14.57,0v7.53a46.51,46.51,0,0,0-20.21,8.4l-5.34-5.34a7.28,7.28,0,0,0-10.3,10.3l5.34,5.34a46.51,46.51,0,0,0-8.4,20.21H129a7.28,7.28,0,0,0,0,14.57h7.53a46.51,46.51,0,0,0,8.4,20.21l-5.34,5.34a7.28,7.28,0,0,0,10.3,10.3l5.34-5.34a46.51,46.51,0,0,0,20.21,8.4v7.53a7.28,7.28,0,0,0,14.57,0v-7.53a46.51,46.51,0,0,0,20.21-8.4l5.34,5.34a7.28,7.28,0,1,0,10.3-10.3L220.53,170a46.51,46.51,0,0,0,8.4-20.21h7.53a7.28,7.28,0,0,0,0-14.57Zm-53.72,39.48a32.2,32.2,0,1,1,32.2-32.2A32.23,32.23,0,0,1,182.74,174.74Z" style="fill:url(#linear-gradient)"/><path d="M182.75,135.26a7.29,7.29,0,1,0,5.15,2.14A7.33,7.33,0,0,0,182.75,135.26Z" style="fill:url(#linear-gradient-2)"/><path d="M175.46,219.62v13.83H14.57V77.82a7.22,7.22,0,0,0-.06-.89l51.1-51.1V66.57h-29c-7.31,6.42-2.86,14.57,3.5,14.57H80.17V15.53h95.29V67.23c6.42,7.31,14.57,2.86,14.57-3.5V1H76.85a7.25,7.25,0,0,0-2,.28A7.27,7.27,0,0,0,67.74,3.1L2.13,68.71A7.28,7.28,0,0,0,.28,75.84a7.29,7.29,0,0,0-.28,2V248H190v-24.9C190,216.76,181.88,212.31,175.46,219.62Z" style="fill:url(#linear-gradient-3)"/><path d="M466.26,0h-189V225.61h189ZM454.89,214.25H288.58V11.37H454.89Z" style="fill:url(#linear-gradient-4)"/><rect x="308.42" y="36.64" width="129.22" height="11.92" style="fill:url(#linear-gradient-5)"/><rect x="308.42" y="74.2" width="129.22" height="11.91" style="fill:url(#linear-gradient-6)"/><polygon points="474.04 25.57 474.04 36.94 484.74 36.94 484.74 239.8 318.42 239.8 318.42 231.92 307.04 231.92 307.04 251.2 496.13 251.2 496.13 25.57 474.04 25.57" style="fill:url(#linear-gradient-7)"/><path d="M313.25,162.58a13.91,13.91,0,0,0,6.18-1.56l16.21,13.26a12.8,12.8,0,0,0-.37,1.81,14.2,14.2,0,0,0,28.39,0,14,14,0,0,0-1.57-6.2l23.71-35.58a13.11,13.11,0,0,0,2.75.56,13.93,13.93,0,0,0,8.86-3.36l18.24,10.64c0,.2-.12.36-.12.56a14.19,14.19,0,1,0,14.2-14.2,14,14,0,0,0-9,3.46l-18.14-10.59c0-.24.14-.44.14-.68a14.17,14.17,0,1,0-28.34,0,13.83,13.83,0,0,0,2.15,7.06l-23.26,34.92a13.15,13.15,0,0,0-3.79-.79,13.88,13.88,0,0,0-7.77,2.63l-15-12.3a13.87,13.87,0,0,0,.78-3.84,14.2,14.2,0,1,0-14.2,14.19Z" style="fill:url(#linear-gradient-8)"/></g></g></svg>