<?xml version="1.0" encoding="utf-8"?>
<!-- Generator: Adobe Illustrator 19.2.1, SVG Export Plug-In . SVG Version: 6.00 Build 0)  -->
<svg version="1.1" id="Layer_1" xmlns="http://www.w3.org/2000/svg" xmlns:xlink="http://www.w3.org/1999/xlink" x="0px" y="0px"
	 viewBox="0 0 475 475" style="enable-background:new 0 0 475 475;" xml:space="preserve">
<style type="text/css">
	.st0{fill:#0066A1;}
</style>
<g transform="translate(0 -540.36)">
	<g>
		<g>
			<path class="st0" d="M335.8,720.4c4.1,0,7.5-3.4,7.5-7.5v-12.1c0.3-0.1,0.6-0.2,1-0.3c0.1-0.1,0.3-0.1,0.4-0.2
				c9.9-4.3,15.6-15.6,13.4-26.8c-2.3-11.6-11.6-20-22.1-20h-0.8c-0.3,0-0.6,0-0.8,0c-2.7,0.3-5.7-3.1-6.6-7.2
				c-0.9-4.6,1.5-8.8,4.4-10.4c3.6-1.5,7.3,0.6,9.1,3.4c2.2,3.5,6.8,4.6,10.3,2.4c3.5-2.2,4.6-6.8,2.4-10.3
				c-2.7-4.3-6.6-7.5-10.9-9.3v-12.3c0-4.1-3.4-7.5-7.5-7.5s-7.5,3.4-7.5,7.5v11.7c-0.7,0.2-1.4,0.5-2.1,0.8c-0.1,0-0.2,0.1-0.3,0.1
				c-9.4,4.7-14.7,16-12.5,26.8c2.4,11.9,12,20.1,22.5,19.2h0.4c3.2,0,6.5,3.6,7.4,7.9c0.8,4.2-1.2,8.5-4.8,10.2
				c-2.7,0.9-6.6,0-8.6-3.2c-2.2-3.5-6.8-4.6-10.3-2.4c-3.5,2.2-4.6,6.8-2.4,10.3c2.6,4.2,6.5,7.3,10.9,9.1v12.6
				C328.3,717,331.7,720.4,335.8,720.4z"/>
			<path class="st0" d="M33.1,964.1h80.7c4.1,0,7.5-3.4,7.5-7.5V806.1c0-4.1-3.4-7.5-7.5-7.5H33.1c-4.1,0-7.5,3.4-7.5,7.5v150.5
				C25.6,960.7,29,964.1,33.1,964.1z M40.6,813.6h65.7v135.5H40.6V813.6z"/>
			<path class="st0" d="M82.7,974.7H64.1c-4.1,0-7.5,3.4-7.5,7.5s3.4,7.5,7.5,7.5h18.6c4.2,0,7.5-3.4,7.5-7.5S86.8,974.7,82.7,974.7
				z"/>
			<path class="st0" d="M237.5,750.8h196.3c4.1,0,7.5-3.4,7.5-7.5s-3.4-7.5-7.5-7.5H237.5c-4.1,0-7.5,3.4-7.5,7.5
				S233.4,750.8,237.5,750.8z"/>
			<path class="st0" d="M467.5,768.4H203.8c-4.1,0-7.5,3.4-7.5,7.5s3.4,7.5,7.5,7.5h263.7c4.1,0,7.5-3.4,7.5-7.5
				S471.6,768.4,467.5,768.4z"/>
			<path class="st0" d="M237.8,587.9h196.3c3.7,0,6.9-2.7,7.2-6.3c0.6-3.6-1.5-7.1-5-8.3l-98.5-32.6c-1.5-0.5-3.2-0.5-4.7,0
				l-97.7,32.6c-3.5,1.1-5.6,4.7-5,8.3C231,585.2,234.1,587.9,237.8,587.9z M335.7,555.7l51.9,17.2H284.1L335.7,555.7z"/>
			<path class="st0" d="M230.4,612.2v98.5c0,4.1,3.4,7.5,7.5,7.5s7.5-3.4,7.5-7.5v-98.5c0-4.1-3.4-7.5-7.5-7.5
				C233.8,604.7,230.4,608.1,230.4,612.2z"/>
			<path class="st0" d="M273.8,612.2v98.5c0,4.1,3.4,7.5,7.5,7.5c4.2,0,7.5-3.4,7.5-7.5v-98.5c0-4.1-3.4-7.5-7.5-7.5
				C277.2,604.7,273.8,608.1,273.8,612.2z"/>
			<path class="st0" d="M139.4,767.6H7.5c-4.1,0-7.5,3.4-7.5,7.5v232.7c0,4.1,3.4,7.5,7.5,7.5h131.9c4.1,0,7.5-3.4,7.5-7.5V775.1
				C146.9,771,143.5,767.6,139.4,767.6z M131.9,1000.3H15V782.6h116.9V1000.3z"/>
			<path class="st0" d="M426.6,612.2v98.5c0,4.1,3.4,7.5,7.5,7.5c4.2,0,7.5-3.4,7.5-7.5v-98.5c0-4.1-3.4-7.5-7.5-7.5
				S426.6,608.1,426.6,612.2z"/>
			<path class="st0" d="M382.4,612.2v98.5c0,4.1,3.4,7.5,7.5,7.5c4.2,0,7.5-3.4,7.5-7.5v-98.5c0-4.1-3.4-7.5-7.5-7.5
				S382.4,608.1,382.4,612.2z"/>
			<path class="st0" d="M188.8,637.9l-41.9-41.1c-3-2.9-7.7-2.9-10.6,0.1c-2.9,3-2.9,7.7,0.1,10.6l28.8,28.3H61.8
				c-4.1,0-7.5,3.4-7.5,7.5V724c0,4.1,3.4,7.5,7.5,7.5s7.5-3.4,7.5-7.5v-73.2h95.1l-27.8,25.8c-3,2.8-3.2,7.6-0.4,10.6
				c1.5,1.6,3.5,2.4,5.5,2.4c1.8,0,3.7-0.7,5.1-2l41.9-38.8c1.5-1.4,2.4-3.3,2.4-5.4C191.1,641.3,190.3,639.3,188.8,637.9
				L188.8,637.9z"/>
			<path class="st0" d="M346.5,835.1L346.5,835.1c-4.1,0-7.5,3.4-7.5,7.5V915h-95.4l27.4-25.8c3-2.8,3.2-7.6,0.3-10.6
				c-2.8-3-7.6-3.2-10.6-0.3l-41.1,38.8c-1.5,1.4-2.3,3.3-2.4,5.3c0,2,0.7,4,2.1,5.4l41.1,41.9c1.5,1.5,3.4,2.2,5.4,2.2
				c1.9,0,3.8-0.7,5.3-2.1c3-2.9,3-7.6,0.1-10.6l-28.6-29.1h103.9c4.1,0,7.5-3.4,7.5-7.5v-79.9C354,838.4,350.6,835.1,346.5,835.1z"
				/>
		</g>
	</g>
</g>
</svg>
