
<svg xmlns="http://www.w3.org/2000/svg" viewBox="0 0 112.25 119.08">
   <defs>
      <style>
      	.cls-1,.cls-2,.cls-3{
      		fill: none;
      		stroke-miterlimit: 10;
      	}
      	.cls-1,.cls-2{
      		stroke: #000000;
      	}
      	.cls-1,.cls-3{
      		stroke-width: 5px;
      	}
      	.cls-2{
      		stroke-width: 3px;
      	}
      	.cls-3{
      		stroke: #000000;
      	}
      </style>
   </defs>
   <g id="Layer_2" data-name="Layer 2">
      <g id="Layer_9" data-name="Layer 9">
         <path class="cls-1" d="M66.92,29.06V9s-1-6.47-6.13-6.47H7.66A7.26,7.26,0,0,0,2.55,9.65V110.11s-1,6.47,5.79,6.47H61.13a7.31,7.31,0,0,0,5.79-7.49V96.15"/>
         <polyline class="cls-2" points="27.16 21.1 14.9 21.1 14.9 38.85 31.75 38.85 31.75 31.96"/>
         <polyline class="cls-2" points="19.5 28.38 23.33 32.47 36.87 19.7"/>
         <rect class="cls-2" x="14.9" y="51.88" width="16.86" height="16.35"/>
         <rect class="cls-2" x="14.9" y="81.51" width="16.86" height="16.35"/>
         <polygon class="cls-3" points="69.05 44.73 55.91 42.17 50.4 70.52 83.61 76.65 88.97 48.56 75.94 46.52 74.15 55.2 66.92 54.18 69.05 44.73"/>
         <polyline class="cls-3" points="91.78 79.21 99.95 35.79 112.25 35.79"/>
         <line class="cls-3" x1="48.61" y1="79.21" x2="74.41" y2="83.81"/>
         <circle class="cls-3" cx="86.17" cy="91.71" r="6.91"/>
      </g>
   </g>
</svg>

