<?xml version="1.0" encoding="iso-8859-1"?>
<!-- Generator: Adobe Illustrator 19.1.0, SVG Export Plug-In . SVG Version: 6.00 Build 0)  -->
<svg version="1.1" id="Capa_1" xmlns="http://www.w3.org/2000/svg" xmlns:xlink="http://www.w3.org/1999/xlink" x="0px" y="0px"
	 viewBox="0 0 487.4 487.4" style="enable-background:new 0 0 487.4 487.4;" xml:space="preserve">
<g>
	<g>
		<path d="M36.036,253.4c1.8,3.1,6.2,3.1,8,0l33.9-58.8c1.8-3.1-0.4-6.9-4-6.9h-18.5v-36.3c0-23.5,19.1-42.6,42.6-42.6h44.7V78
			h-44.7c-40.4,0-73.3,32.9-73.3,73.3v36.4h-18.6c-3.5,0-5.8,3.8-4,6.9L36.036,253.4z"/>
		<circle cx="159.436" cy="389.6" r="49.5"/>
		<circle cx="72.236" cy="389.6" r="16.6"/>
		<circle cx="246.636" cy="389.6" r="16.6"/>
		<path d="M290.036,291.8h-261.2c-15.1,0-27.4,12.3-27.4,27.4V460c0,15.1,12.3,27.4,27.4,27.4h261.1c15.1,0,27.4-12.3,27.4-27.4
			V319.2C317.436,304.1,305.136,291.8,290.036,291.8z M294.036,431.7c-1.6-0.3-3.2-0.4-4.9-0.4c-15.3,0-27.7,12.4-27.7,27.7
			c0,1.7,0.2,3.4,0.5,5.1h-203.4c0.5-2.2,0.8-4.4,0.8-6.8c0-15.3-12.4-27.7-27.7-27.7c-2.4,0-4.7,0.3-6.9,0.9v-85
			c2.2,0.6,4.5,0.9,6.9,0.9c15.3,0,27.7-12.4,27.7-27.7c0-1.2-0.1-2.3-0.2-3.4h202.7c-0.3,1.7-0.5,3.4-0.5,5.1
			c0,15.3,12.4,27.7,27.7,27.7c1.7,0,3.3-0.2,4.9-0.4v84H294.036z"/>
		<path d="M451.436,234c-1.8-3.1-6.2-3.1-8,0l-33.9,58.8c-1.8,3.1,0.4,6.9,4,6.9h18.6V336c0,23.5-19.1,42.6-42.6,42.6h-44.8v30.7
			h44.7c40.4,0,73.3-32.9,73.3-73.3v-36.3h18.6c3.5,0,5.8-3.8,4-6.9L451.436,234z"/>
		<circle cx="328.036" cy="97.8" r="49.5"/>
		<circle cx="240.836" cy="97.8" r="16.6"/>
		<circle cx="415.236" cy="97.8" r="16.6"/>
		<path d="M458.636,0h-261.2c-15.1,0-27.4,12.3-27.4,27.4v140.8c0,15.1,12.3,27.4,27.4,27.4h261.1c15.1,0,27.4-12.3,27.4-27.4V27.3
			C485.936,12.2,473.736,0,458.636,0z M462.636,139.8c-1.6-0.3-3.2-0.4-4.9-0.4c-15.3,0-27.7,12.4-27.7,27.7c0,1.7,0.2,3.4,0.5,5.1
			h-203.4c0.5-2.2,0.8-4.4,0.8-6.8c0-15.3-12.4-27.7-27.7-27.7c-2.4,0-4.7,0.3-6.9,0.9v-85c2.2,0.6,4.5,0.9,6.9,0.9
			c15.3,0,27.7-12.4,27.7-27.7c0-1.2-0.1-2.3-0.2-3.4h202.7c-0.3,1.7-0.5,3.4-0.5,5.1c0,15.3,12.4,27.7,27.7,27.7
			c1.7,0,3.3-0.2,4.9-0.4v84H462.636z"/>
	</g>
</g>
<g>
</g>
<g>
</g>
<g>
</g>
<g>
</g>
<g>
</g>
<g>
</g>
<g>
</g>
<g>
</g>
<g>
</g>
<g>
</g>
<g>
</g>
<g>
</g>
<g>
</g>
<g>
</g>
<g>
</g>
</svg>
