<?xml version="1.0" encoding="utf-8"?>
<!-- Generator: Adobe Illustrator 17.0.0, SVG Export Plug-In . SVG Version: 6.00 Build 0)  -->
<!DOCTYPE svg PUBLIC "-//W3C//DTD SVG 1.1//EN" "http://www.w3.org/Graphics/SVG/1.1/DTD/svg11.dtd">
<svg version="1.1" id="Layer_1" xmlns="http://www.w3.org/2000/svg" xmlns:xlink="http://www.w3.org/1999/xlink" x="0px" y="0px"
	 width="1535px" height="709px" viewBox="0 0 1535 709" enable-background="new 0 0 1535 709" xml:space="preserve">
<path d="M1096.52,499.9l25.48-14.402c-1.662-9.416-3.877-18.833-7.201-28.249h-29.357l-16.064-28.249l14.956-25.48
	c-6.093-7.201-12.739-14.402-20.494-20.494l-25.48,14.402l-28.249-16.617v-29.357c-0.554,0-1.108-0.554-2.215-0.554
	c-8.309-2.769-17.171-5.538-26.034-7.201l-14.956,25.48h-32.681l-14.402-25.48c-9.416,1.662-18.833,3.877-28.249,7.201v29.357
	l-28.249,16.064l-25.48-14.956c-7.201,6.093-14.402,12.739-20.494,20.494l14.402,25.48l-16.617,28.249H785.78
	c-3.323,9.416-6.093,18.279-7.755,27.695l25.48,14.956v32.681l-25.48,14.402c1.662,9.416,3.877,18.833,7.201,28.249h29.357
	l16.064,28.249l-14.956,25.48c6.093,7.201,12.739,14.402,20.494,20.494l25.48-14.402l28.249,16.617v29.357
	c0.554,0,1.108,0.554,2.215,0.554c8.309,2.769,17.171,5.538,26.034,7.201l14.956-25.48h32.681l14.402,25.48
	c9.416-1.662,18.833-3.877,28.249-7.201v-29.357l28.249-16.064l25.48,14.956c7.201-6.093,14.401-12.739,20.494-20.494l-14.401-25.48
	l16.617-28.249h29.357c3.323-9.416,6.093-18.279,7.755-27.695l-25.48-14.956V499.9z M950.289,611.789
	c-53.175,0-96.934-43.205-96.934-96.379c0-53.175,43.205-96.934,96.934-96.934c53.175,0,96.934,43.205,96.934,96.379
	C1047.223,568.031,1003.464,611.789,950.289,611.789z"/>
<path d="M799.627,337.606c0-10.524-0.554-21.602-2.215-32.126l-31.572-6.647l-11.632-34.342l21.602-24.372
	c-4.986-9.416-11.078-18.279-17.725-26.588l-31.018,10.524l-27.141-23.817l6.647-32.126c-9.416-5.538-18.833-10.524-28.803-14.402
	l-21.048,24.372l-35.45-7.201l-10.524-31.018c-10.524,0-21.602,0.554-32.126,2.215l-6.647,31.572l-34.342,11.632l-24.372-21.602
	c-9.416,4.986-18.279,11.078-26.588,17.725l10.524,31.018l-23.817,27.141l-32.126-6.647c-5.538,9.416-10.524,18.833-14.402,28.803
	l24.372,21.602l-7.201,35.45L413,328.744c0,10.524,0.554,21.602,2.215,32.126l32.126,6.647l11.632,34.342l-21.602,24.372
	c4.986,9.416,11.078,18.279,17.725,26.588l31.018-10.524l27.141,23.817l-7.201,32.126c9.416,5.538,18.833,10.524,28.803,14.402
	l21.602-24.372l35.45,7.201l10.524,31.018c10.524,0,21.602-0.554,32.126-2.215l6.647-31.572l34.342-11.632l24.372,21.602
	c9.416-4.986,18.279-11.078,26.588-17.725l-10.524-31.018l23.817-27.141l32.126,6.647c5.538-9.416,10.524-18.833,14.402-28.803
	l-24.372-21.602l7.201-35.45L799.627,337.606L799.627,337.606z M606.313,440.079c-59.269,0-107.458-48.19-107.458-107.458
	s48.19-107.458,107.458-107.458s107.458,48.19,107.458,107.458S665.581,440.079,606.313,440.079z"/>
<path d="M1055.532,175.865l23.265-9.416c-0.554-8.309-1.662-16.617-3.323-24.926l-24.926-3.323l-10.524-26.034l15.51-19.94
	c-4.432-7.201-9.416-13.847-14.956-19.94l-23.265,9.416l-22.156-17.171l3.323-24.926l-1.662-1.108
	c-7.201-3.323-14.402-6.647-21.602-8.863l-15.51,19.94l-27.695-3.877l-9.416-23.817c-8.309,0.554-16.617,1.108-24.926,2.769
	l-3.323,24.926l-26.588,11.078l-19.94-15.51c-7.201,4.432-13.847,9.416-19.94,14.956l9.416,23.265l-17.171,22.156l-24.926-3.323
	c-3.877,7.201-7.201,14.956-9.97,23.265l19.94,15.51l-3.877,27.695l-23.265,9.416c0.554,8.309,1.662,16.617,3.323,24.926
	l24.926,3.323l10.524,26.034l-15.51,19.94c4.432,7.201,9.416,13.847,14.956,19.94l23.265-9.416l22.156,17.171l-3.323,24.926
	l1.662,1.108c7.201,3.323,14.402,6.647,21.602,8.863l15.51-19.94l27.695,3.877l9.416,23.265c8.309-0.554,16.617-1.108,24.926-3.323
	l3.323-24.926l26.034-10.524l19.94,15.51c7.201-4.432,13.847-9.416,19.94-14.956l-9.416-23.265l17.171-22.156l24.926,3.323
	c3.877-7.201,7.201-14.956,9.97-23.265l-19.94-15.51C1051.1,203.007,1055.532,175.865,1055.532,175.865z M928.687,257.843
	c-47.636,0-85.855-38.219-85.855-85.855s38.219-85.855,85.855-85.855c47.636,0,85.855,38.219,85.855,85.855
	S976.323,257.843,928.687,257.843z"/>
</svg>
