<?xml version="1.0" encoding="iso-8859-1"?>
<!-- Generator: Adobe Illustrator 19.0.0, SVG Export Plug-In . SVG Version: 6.00 Build 0)  -->
<svg version="1.1" id="Layer_1" xmlns="http://www.w3.org/2000/svg" xmlns:xlink="http://www.w3.org/1999/xlink" x="0px" y="0px"
	 viewBox="0 0 508 508" style="enable-background:new 0 0 508 508;" xml:space="preserve">
<circle style="fill:#324A5E;" cx="254" cy="254" r="254"/>
<g>
	<circle style="fill:#FFD05B;" cx="150.4" cy="134" r="36.4"/>
	<path style="fill:#FFD05B;" d="M180.8,181.2h-61.2c-9.6,0-17.6,8-17.6,17.6V318h28.4v92.8H170V318h28.4V198.8
		C198.4,189.2,190.8,181.2,180.8,181.2z"/>
</g>
<polygon style="fill:#FFFFFF;" points="326.8,390 326.8,96.4 307.6,96.4 307.6,390 274.8,390 274.8,410.4 360,410.4 360,390 "/>
<polygon style="fill:#4CDBC4;" points="404.4,169.6 271.6,169.6 271.6,127.6 404.4,127.6 424,148.8 "/>
<polygon style="fill:#FF7058;" points="240,237.2 372.4,237.2 372.4,195.6 240,195.6 220,216.4 "/>
<g>
</g>
<g>
</g>
<g>
</g>
<g>
</g>
<g>
</g>
<g>
</g>
<g>
</g>
<g>
</g>
<g>
</g>
<g>
</g>
<g>
</g>
<g>
</g>
<g>
</g>
<g>
</g>
<g>
</g>
</svg>
